<svg aria-hidden="true" style="position: absolute; width: 0; height: 0; overflow: hidden;" version="1.1" xmlns="http://www.w3.org/2000/svg" xmlns:xlink="http://www.w3.org/1999/xlink">
<defs>

<symbol id="icon-cursorsvg" viewBox="0 0 21 32">
<path  style="fill: var(--color1, #fff)" d="M19.042 18.067l-17.21-17.21c-0.184-0.197-0.445-0.32-0.735-0.32-0.008 0-0.015 0-0.023 0l0.001-0c-0.146 0.002-0.284 0.033-0.41 0.087l0.007-0.003c-0.395 0.164-0.669 0.546-0.672 0.992v25.278c0 0.437 0.269 0.823 0.672 0.992 0.119 0.051 0.257 0.081 0.402 0.083h0.001c0.296-0.002 0.564-0.124 0.757-0.32l5.244-5.242 3.209 7.597c0.17 0.388 0.55 0.655 0.993 0.655 0.151 0 0.295-0.031 0.426-0.087l-0.007 0.003 2.974-1.261c0.389-0.169 0.656-0.55 0.656-0.994 0-0.151-0.031-0.295-0.087-0.425l0.003 0.007-3.377-8h6.419c0.446-0.003 0.828-0.277 0.989-0.665l0.003-0.007c0.054-0.121 0.085-0.262 0.085-0.411 0-0.294-0.123-0.56-0.32-0.748l-0-0z"></path>
</symbol>

<symbol id="icon-facebook" viewBox="0 0 19 32">
<path  stroke="#02897a" style="stroke: var(--color2, #02897a)" stroke-linejoin="round" stroke-linecap="round" stroke-miterlimit="4" stroke-width="2.9091" d="M17.455 1.455h-4.364c-4.017 0-7.273 3.256-7.273 7.273v0 4.364h-4.364v5.818h4.364v11.636h5.818v-11.636h4.364l1.455-5.818h-5.818v-4.364c0-0.803 0.651-1.455 1.455-1.455v0h4.364v-5.818z"></path>
</symbol>

<symbol id="icon-fivestarssvg" viewBox="0 0 188 32">
<path  style="fill: var(--color3, #f3cd03)" d="M32.404 11.486c-0.108-0.304-0.295-0.558-0.537-0.744l-0.004-0.003c-0.24-0.186-0.538-0.307-0.863-0.334l-0.006-0-9.262-0.724-4.007-8.736c-0.132-0.286-0.337-0.52-0.591-0.684l-0.006-0.004c-0.249-0.16-0.553-0.256-0.879-0.256-0.652 0-1.215 0.381-1.479 0.932l-0.004 0.010-4.007 8.738-9.262 0.724c-0.325 0.026-0.618 0.144-0.859 0.327l0.004-0.003c-0.392 0.29-0.644 0.751-0.644 1.271 0 0.451 0.19 0.858 0.494 1.146l0.001 0.001 6.844 6.569-2.421 10.322c-0.027 0.109-0.043 0.235-0.043 0.364 0 0.545 0.276 1.025 0.697 1.308l0.006 0.004c0.259 0.178 0.579 0.284 0.924 0.284 0.336 0 0.648-0.101 0.908-0.274l-0.006 0.004 8.846-5.808 8.844 5.808c0.254 0.167 0.565 0.267 0.899 0.267 0.36 0 0.693-0.115 0.964-0.311l-0.005 0.003c0.407-0.289 0.669-0.759 0.669-1.29 0-0.157-0.023-0.308-0.065-0.451l0.003 0.011-2.969-10.236 7.367-6.53c0.33-0.292 0.538-0.717 0.538-1.19 0-0.184-0.031-0.361-0.089-0.526l0.003 0.011zM71.394 11.486c-0.108-0.304-0.295-0.558-0.537-0.744l-0.004-0.003c-0.24-0.186-0.539-0.308-0.865-0.334l-0.006-0-9.26-0.724-4.007-8.736c-0.133-0.287-0.338-0.52-0.593-0.684l-0.006-0.004c-0.249-0.16-0.552-0.255-0.878-0.255-0.652 0-1.215 0.38-1.479 0.931l-0.004 0.010-4.007 8.738-9.262 0.724c-0.326 0.026-0.619 0.144-0.861 0.327l0.004-0.003c-0.393 0.29-0.645 0.751-0.645 1.271 0 0.452 0.19 0.859 0.495 1.146l0.001 0.001 6.844 6.569-2.42 10.322c-0.027 0.108-0.042 0.233-0.042 0.36 0 0.208 0.040 0.406 0.113 0.587l-0.004-0.011c0.122 0.306 0.326 0.558 0.585 0.736l0.005 0.004c0.259 0.178 0.579 0.285 0.924 0.285 0.336 0 0.649-0.101 0.909-0.274l-0.006 0.004 8.844-5.808 8.846 5.808c0.254 0.167 0.565 0.267 0.899 0.267 0.36 0 0.693-0.115 0.964-0.311l-0.005 0.003c0.407-0.289 0.669-0.759 0.669-1.29 0-0.157-0.023-0.308-0.065-0.451l0.003 0.011-2.971-10.236 7.369-6.53c0.33-0.292 0.537-0.717 0.537-1.19 0-0.184-0.031-0.361-0.089-0.526l0.003 0.011zM110.377 11.486c-0.108-0.304-0.295-0.558-0.537-0.744l-0.004-0.003c-0.24-0.186-0.539-0.308-0.865-0.334l-0.006-0-9.26-0.724-4.007-8.736c-0.133-0.287-0.338-0.52-0.593-0.684l-0.006-0.004c-0.249-0.16-0.552-0.255-0.878-0.255-0.652 0-1.215 0.38-1.479 0.931l-0.004 0.010-4.009 8.738-9.26 0.724c-0.326 0.026-0.619 0.144-0.861 0.327l0.004-0.003c-0.388 0.295-0.637 0.757-0.637 1.277 0 0.125 0.014 0.247 0.041 0.364l-0.002-0.011c0.069 0.299 0.226 0.572 0.448 0.788l6.844 6.569-2.42 10.322c-0.027 0.11-0.043 0.236-0.043 0.365 0 0.544 0.276 1.024 0.695 1.308l0.006 0.004c0.259 0.178 0.579 0.285 0.924 0.285 0.336 0 0.649-0.101 0.909-0.274l-0.006 0.004 8.844-5.808 8.846 5.808c0.254 0.167 0.565 0.267 0.899 0.267 0.36 0 0.693-0.115 0.964-0.311l-0.005 0.003c0.407-0.289 0.669-0.759 0.669-1.29 0-0.157-0.023-0.308-0.065-0.451l0.003 0.011-2.971-10.236 7.369-6.53c0.33-0.292 0.537-0.717 0.537-1.19 0-0.184-0.031-0.361-0.089-0.526l0.003 0.011zM149.369 11.486c-0.108-0.304-0.295-0.558-0.537-0.744l-0.004-0.003c-0.24-0.186-0.539-0.308-0.865-0.334l-0.006-0-9.26-0.724-4.007-8.736c-0.132-0.286-0.337-0.52-0.591-0.684l-0.006-0.004c-0.249-0.16-0.553-0.256-0.879-0.256-0.652 0-1.215 0.381-1.479 0.932l-0.004 0.010-4.007 8.738-9.262 0.724c-0.326 0.026-0.619 0.144-0.861 0.327l0.004-0.003c-0.393 0.29-0.645 0.751-0.645 1.271 0 0.452 0.19 0.859 0.495 1.146l0.001 0.001 6.844 6.569-2.42 10.322c-0.027 0.11-0.043 0.236-0.043 0.366 0 0.544 0.276 1.024 0.695 1.307l0.006 0.004c0.259 0.178 0.579 0.285 0.924 0.285 0.336 0 0.649-0.101 0.909-0.274l-0.006 0.004 8.846-5.808 8.844 5.808c0.254 0.167 0.565 0.267 0.899 0.267 0.36 0 0.693-0.115 0.964-0.311l-0.005 0.003c0.407-0.289 0.669-0.759 0.669-1.289 0-0.157-0.023-0.309-0.066-0.452l0.003 0.011-2.969-10.236 7.367-6.53c0.33-0.292 0.537-0.717 0.537-1.19 0-0.184-0.031-0.361-0.089-0.526l0.003 0.011zM163.291 19.716l-2.42 10.322c-0.028 0.111-0.044 0.239-0.044 0.371 0 0.544 0.276 1.023 0.695 1.305l0.006 0.004c0.258 0.178 0.578 0.284 0.922 0.284 0.337 0 0.651-0.102 0.912-0.277l-0.006 0.004 8.844-5.808 8.846 5.808c0.253 0.167 0.563 0.266 0.896 0.266 0.704 0 1.304-0.443 1.536-1.066l0.004-0.011c0.057-0.156 0.090-0.336 0.090-0.524 0-0.155-0.022-0.305-0.064-0.447l0.003 0.011-2.971-10.236 7.369-6.53c0.329-0.294 0.535-0.72 0.535-1.194 0-0.182-0.030-0.357-0.087-0.521l0.003 0.011c-0.211-0.602-0.755-1.035-1.405-1.081l-0.005-0-9.262-0.725-4.007-8.736c-0.133-0.287-0.338-0.52-0.593-0.684l-0.006-0.004c-0.248-0.159-0.551-0.254-0.876-0.254-0.652 0-1.216 0.381-1.48 0.932l-0.004 0.010-4.009 8.736-9.26 0.724c-0.326 0.026-0.619 0.144-0.861 0.327l0.004-0.003c-0.389 0.295-0.638 0.758-0.638 1.279 0 0.125 0.014 0.246 0.041 0.362l-0.002-0.011c0.071 0.299 0.228 0.572 0.45 0.788l6.846 6.569zM167.925 12.796c0.304-0.024 0.58-0.129 0.812-0.291l-0.005 0.003c0.235-0.164 0.42-0.384 0.54-0.641l0.004-0.010 2.923-6.368 2.923 6.368c0.124 0.267 0.31 0.486 0.541 0.647l0.005 0.003c0.238 0.165 0.516 0.265 0.805 0.288l6.453 0.503-5.314 4.709c-0.331 0.292-0.538 0.717-0.538 1.191 0 0.156 0.022 0.306 0.064 0.449l-0.003-0.011 2.036 7.015-6.069-3.986c-0.253-0.169-0.565-0.27-0.9-0.27s-0.647 0.101-0.906 0.274l0.006-0.004-6.341 4.164 1.705-7.271c0.027-0.109 0.042-0.233 0.042-0.362 0-0.449-0.188-0.855-0.489-1.142l-0.001-0.001-4.937-4.738 6.644-0.521z"></path>
</symbol>

<symbol id="icon-heartsvg" viewBox="0 0 34 32">
<path  style="fill: var(--color1, #fff)" d="M17.067 30.172c0.002 0 0.005 0 0.008 0 0.324 0 0.617-0.13 0.831-0.341l-0 0 11.866-11.43c0.171-0.171 4.363-4 4.363-8.572 0-5.581-3.409-8.911-9.105-8.911-3.332-0.002-6.458 2.624-7.962 4.111-1.504-1.485-4.629-4.111-7.962-4.111-5.696-0.002-9.105 3.328-9.105 8.911 0 4.572 4.19 8.401 4.343 8.533l11.885 11.467c0.228 0.228 0.533 0.341 0.838 0.341z"></path>
</symbol>

<symbol id="icon-hourglasssvg" viewBox="0 0 26 32">
<path  style="fill: var(--color1, #fff)" d="M23.663 2.69h1.615c0.301 0 0.536-0.235 0.536-0.538v-1.079c0-0.002 0-0.004 0-0.006 0-0.293-0.238-0.531-0.531-0.531-0.002 0-0.004 0-0.006 0h-24.739c-0.002-0-0.005-0-0.008-0-0.293 0-0.531 0.238-0.531 0.531 0 0.002 0 0.004 0 0.006v-0 1.077c0 0.301 0.235 0.538 0.538 0.538h1.613c0 6.217 2.974 10.722 6.268 12.907-3.294 2.184-6.268 6.688-6.268 12.907h-1.613c-0.002-0-0.005-0-0.008-0-0.293 0-0.531 0.238-0.531 0.531 0 0.003 0 0.005 0 0.008v-0 1.077c0 0.301 0.235 0.538 0.538 0.538h24.74c0.301 0 0.536-0.235 0.536-0.538v-1.075c0-0.002 0-0.005 0-0.008 0-0.293-0.238-0.531-0.531-0.531-0.002 0-0.004 0-0.006 0h-1.615c0-6.219-2.974-10.724-6.268-12.907 3.294-2.185 6.268-6.69 6.268-12.907zM21.513 2.69c0 0.024 0 0.053 0 0.082 0 2.315-0.528 4.506-1.47 6.46l0.039-0.089h-14.349c-0.903-1.865-1.431-4.056-1.431-6.371 0-0.029 0-0.058 0-0.086l-0 0.004h17.212zM20.553 23.127h-15.29c1.242-3.243 3.479-5.547 5.713-6.455h3.866c2.234 0.907 4.471 3.211 5.715 6.455z"></path>
</symbol>

<symbol id="icon-instagram" viewBox="0 0 32 32">
<path  stroke="#02897a" style="stroke: var(--color2, #02897a)" stroke-linejoin="round" stroke-linecap="round" stroke-miterlimit="4" stroke-width="2.6667" d="M22.667 2.667h-13.333c-3.682 0-6.667 2.985-6.667 6.667v0 13.333c0 3.682 2.985 6.667 6.667 6.667v0h13.333c3.682 0 6.667-2.985 6.667-6.667v0-13.333c0-3.682-2.985-6.667-6.667-6.667v0z"></path>
<path  stroke="#02897a" style="stroke: var(--color2, #02897a)" stroke-linejoin="round" stroke-linecap="round" stroke-miterlimit="4" stroke-width="2.6667" d="M21.333 15.16c0.043 0.253 0.067 0.545 0.067 0.843 0 2.946-2.388 5.333-5.333 5.333-2.691 0-4.917-1.993-5.281-4.584l-0.003-0.028c-0.031-0.217-0.049-0.467-0.049-0.721 0-2.946 2.388-5.333 5.333-5.333 2.648 0 4.845 1.93 5.262 4.46l0.004 0.031zM23.333 8.667h0.013"></path>
</symbol>

<symbol id="icon-phonesvg" viewBox="0 0 21 32">
<path  style="fill: var(--color2, #02897a)" d="M18.424 0h-15.515c-1.607 0-2.909 1.344-2.909 3v26c0 1.656 1.303 3 2.909 3h15.515c1.607 0 2.909-1.344 2.909-3v-26c0-1.656-1.303-3-2.909-3zM13.576 27.944c0 0.607-0.436 1.056-0.969 1.056h-3.933c-0.48 0-0.916-0.449-0.916-1s0.436-1 0.969-1h3.88c0.533 0 0.969 0.449 0.969 0.944zM17.453 24h-13.575v-20h13.576v20z"></path>
</symbol>

<symbol id="icon-playvideosvg" viewBox="0 0 28 32">
<path  style="fill: var(--color2, #02897a)" d="M26.087 12.891c2.441 1.355 2.441 4.864 0 6.219l-21.156 11.739c-2.368 1.316-5.28-0.398-5.28-3.111v-23.474c0-2.711 2.912-4.423 5.28-3.111l21.156 11.739z"></path>
</symbol>

<symbol id="icon-socialicon" viewBox="0 0 41 32">
<path  style="fill: var(--color1, #fff)" d="M21.673 12.898l2.674 1.246 3.977-1.184v-2.777c0-4.713-3.977-8.489-8.731-8.489-4.736 0-8.736 3.755-8.736 8.432v12.651c0 1.166-0.937 2.082-2.080 2.082s-2.082-0.919-2.082-2.080v-5.349h-6.695v5.426c0 4.835 3.919 8.754 8.754 8.754v0c4.798 0 8.754-3.856 8.754-8.631v-12.491c0-1.143 0.939-2.080 2.082-2.080s2.082 0.937 2.082 2.080v2.409zM32.489 17.429v5.611c0 1.143-0.937 2.062-2.080 2.062s-2.082-0.919-2.082-2.062v-5.509l-3.979 1.184-2.674-1.246v5.47c0 4.795 3.938 8.672 8.754 8.672 4.835 0 8.754-3.919 8.754-8.754v0-5.429h-6.693z"></path>
</symbol>

<symbol id="icon-ticksvg" viewBox="0 0 45 32">
<path  style="fill: var(--color1, #fff)" d="M42.171 0.64c-0.383-0.395-0.919-0.64-1.512-0.64s-1.129 0.245-1.511 0.639l-0.001 0-25.605 26.101-9.843-10.035c-0.383-0.395-0.919-0.64-1.512-0.64s-1.129 0.245-1.512 0.639l-0 0c-0.388 0.397-0.627 0.941-0.627 1.541s0.239 1.144 0.627 1.542l-0-0 11.355 11.573c0.384 0.394 0.919 0.639 1.512 0.639s1.128-0.244 1.512-0.638l0-0 27.117-27.643c0.388-0.397 0.627-0.941 0.627-1.541s-0.239-1.144-0.627-1.542l0 0z"></path>
</symbol>

<symbol id="icon-twitter" viewBox="0 0 38 32">
<path  stroke="#02897a" style="stroke: var(--color2, #02897a)" stroke-linejoin="round" stroke-linecap="round" stroke-miterlimit="4" stroke-width="3.2" d="M36.8 1.616c-1.44 1.028-3.109 1.862-4.9 2.415l-0.124 0.033c-1.321-1.513-3.254-2.464-5.409-2.464-3.959 0-7.168 3.209-7.168 7.168 0 0.034 0 0.068 0.001 0.101l-0-0.005v1.6c-0.132 0.004-0.287 0.006-0.442 0.006-5.748 0-10.832-2.844-13.922-7.201l-0.036-0.053s-6.4 14.4 8 20.8c-2.931 2.013-6.555 3.215-10.46 3.215-0.26 0-0.519-0.005-0.777-0.016l0.037 0.001c14.4 8 32 0 32-18.4 0-0.445-0.045-0.89-0.128-1.328 1.587-1.566 2.752-3.556 3.31-5.787l0.018-0.085z"></path>
</symbol>
</defs>
</svg>
